<svg width="1600" height="900" viewBox="0 0 1600 900" xmlns="http://www.w3.org/2000/svg">
  <g transform="translate(120,100) scale(0.8)">
    <polyline points="80,432 432,432 432,96 80,432" fill="none" stroke="#111111" stroke-width="6" stroke-linejoin="miter"/>
    <line x1="100" y1="424" x2="430" y2="424" stroke="#2F5E8C" stroke-width="1.5" opacity="0.35"/>
    <line x1="110" y1="416" x2="430" y2="416" stroke="#2F5E8C" stroke-width="1.5" opacity="0.25"/>
    <line x1="424" y1="115" x2="424" y2="430" stroke="#2F5E8C" stroke-width="1.5" opacity="0.35"/>
    <line x1="416" y1="125" x2="416" y2="430" stroke="#2F5E8C" stroke-width="1.5" opacity="0.25"/>
    <rect x="96" y="84" width="24" height="24" fill="none" stroke="#111111" stroke-width="5"/>
    <rect x="99" y="87" width="18" height="18" fill="none" stroke="#2F5E8C" stroke-width="2"/>
    <rect x="102" y="90" width="12" height="12" fill="none" stroke="#5B8DB8" stroke-width="1.5"/>
    <rect x="105" y="93" width="6" height="6" fill="none" stroke="#A9C7E3" stroke-width="1"/>
    <text x="150" y="238" font-family="'IBM Plex Sans', 'Inter', Arial, sans-serif" font-size="138" font-weight="600" letter-spacing="2" fill="#111111">R</text>
    <text x="305" y="418" font-family="'IBM Plex Sans', 'Inter', Arial, sans-serif" font-size="138" font-weight="600" letter-spacing="2" fill="#111111">A</text>
  </g>

  <g transform="translate(850,80) scale(0.8)">
    <g transform="translate(100,0)">
      <polyline points="80,432 432,432 432,96 80,432" fill="none" stroke="#111111" stroke-width="6" stroke-linejoin="miter"/>
      <rect x="96" y="84" width="24" height="24" fill="none" stroke="#111111" stroke-width="5"/>
      <rect x="99" y="87" width="18" height="18" fill="none" stroke="#2F5E8C" stroke-width="2"/>
      <rect x="102" y="90" width="12" height="12" fill="none" stroke="#5B8DB8" stroke-width="1.5"/>
      <rect x="105" y="93" width="6" height="6" fill="none" stroke="#A9C7E3" stroke-width="1"/>
    </g>
    <text x="350" y="700" text-anchor="middle" font-family="'IBM Plex Sans', 'Inter', Arial, sans-serif" font-size="130" font-weight="600" letter-spacing="10" fill="#111111">REALITY</text>
    <text x="350" y="830" text-anchor="middle" font-family="'IBM Plex Sans', 'Inter', Arial, sans-serif" font-size="130" font-weight="600" letter-spacing="10" fill="#111111">ANCHORS</text>
    <text x="350" y="920" text-anchor="middle" font-family="'IBM Plex Sans', 'Inter', Arial, sans-serif" font-size="70" font-weight="500" letter-spacing="14" fill="#444444">LIMITED</text>
  </g>
</svg>
