<svg width="1200" height="700" viewBox="0 0 1200 700" fill="none" xmlns="http://www.w3.org/2000/svg">
  <defs>
    <linearGradient id="bg" x1="0" y1="0" x2="1200" y2="700" gradientUnits="userSpaceOnUse">
      <stop stop-color="#090F19"/>
      <stop offset="1" stop-color="#213B52"/>
    </linearGradient>
    <linearGradient id="steel" x1="0" y1="0" x2="1" y2="1">
      <stop stop-color="#6B7D8D"/>
      <stop offset="1" stop-color="#2A3A48"/>
    </linearGradient>
  </defs>
  <rect width="1200" height="700" fill="url(#bg)"/>
  <rect x="58" y="58" width="1084" height="584" rx="24" fill="#0C1726" stroke="#2E7DEB" stroke-opacity="0.35"/>

  <rect x="120" y="470" width="960" height="86" rx="16" fill="#16283A" stroke="#7FB4FF" stroke-opacity="0.4"/>
  <g opacity="0.8">
    <rect x="170" y="500" width="280" height="10" rx="5" fill="url(#steel)"/>
    <rect x="470" y="500" width="310" height="10" rx="5" fill="url(#steel)"/>
    <rect x="800" y="500" width="210" height="10" rx="5" fill="url(#steel)"/>
  </g>

  <rect x="175" y="260" width="305" height="185" rx="14" fill="#111F31" stroke="#4EA1FF" stroke-opacity="0.5"/>
  <rect x="222" y="298" width="215" height="105" rx="9" fill="#1A3248"/>
  <path d="M236 360H423" stroke="#9DCEFF" stroke-width="3" stroke-linecap="round"/>
  <path d="M236 336H385" stroke="#9DCEFF" stroke-opacity="0.65" stroke-width="3" stroke-linecap="round"/>

  <rect x="535" y="190" width="370" height="250" rx="18" fill="#12253A" stroke="#6FB0FF" stroke-opacity="0.45"/>
  <circle cx="720" cy="318" r="86" fill="#1F3A56" stroke="#86BFFF" stroke-width="3"/>
  <path d="M720 318L782 272" stroke="#9CCEFF" stroke-width="6" stroke-linecap="round"/>
  <path d="M720 318L720 234" stroke="#9CCEFF" stroke-opacity="0.55" stroke-width="3" stroke-dasharray="8 8"/>
  <path d="M720 318L792 318" stroke="#9CCEFF" stroke-opacity="0.55" stroke-width="3" stroke-dasharray="8 8"/>
  <path d="M802 318C802 352.242 774.242 380 740 380" stroke="#53A6FF" stroke-width="4"/>

  <rect x="930" y="210" width="190" height="250" rx="16" fill="#101D2E" stroke="#3E8EF3" stroke-opacity="0.45"/>
  <rect x="960" y="255" width="130" height="28" rx="8" fill="#2A4159"/>
  <rect x="960" y="300" width="130" height="28" rx="8" fill="#2A4159"/>
  <rect x="960" y="345" width="130" height="28" rx="8" fill="#2A4159"/>
  <rect x="960" y="390" width="95" height="28" rx="8" fill="#3E8EF3" fill-opacity="0.65"/>

  <path d="M570 450C670 386 760 390 882 290" stroke="#7FBEFF" stroke-opacity="0.7" stroke-width="2" stroke-dasharray="7 8"/>
  <circle cx="882" cy="290" r="6" fill="#7FBEFF"/>
</svg>
